<svg id="LOGO" xmlns="http://www.w3.org/2000/svg" xmlns:xlink="http://www.w3.org/1999/xlink" viewBox="0 0 276.59 275"><defs><style>.cls-1{fill:none;}.cls-2{clip-path:url(#clip-path);}.cls-3{fill:#fff;}.cls-4{fill:#ffc709;}.cls-5{fill:#094a6c;}.cls-6{fill:#4aabe0;}.cls-7{fill:#f26322;}</style><clipPath id="clip-path" transform="translate(-167.01 -82.39)"><circle class="cls-1" cx="304.51" cy="219.89" r="137.5"/></clipPath></defs><title>LOGO_FINAL_circle</title><g id="LOGO-2" data-name="LOGO"><g class="cls-2"><circle class="cls-3" cx="137.5" cy="137.5" r="137.5"/><path class="cls-1" d="M309.77,288.05c24.91,10.31,50.87,15.23,76.19,10.18,66.71-13.31,4.91-84-6.25-95.88a31.84,31.84,0,0,1-18.7,6,32.3,32.3,0,0,1-3.65-.21,72.39,72.39,0,0,1-47.59,79.88Z" transform="translate(-167.01 -82.39)"/><path class="cls-4" d="M226,280.91c-23-15-43.16-33.17-58.41-48.65A137.49,137.49,0,0,0,390.09,327.5C331.7,341.11,271.63,310.72,226,280.91Z" transform="translate(-167.01 -82.39)"/><path class="cls-3" d="M443.51,212.89A119.29,119.29,0,0,0,415,138a137.74,137.74,0,0,1,19.85,125.87l0-.1c-10.48-29.87-41.52-58.71-49.89-66.11a32,32,0,1,0-53.24-34,72.31,72.31,0,0,1,25.7,44.54,32.3,32.3,0,0,0,3.65.21c7,0,14.44-3.24,19.7-7,11.16,11.92,72,83.57,5.25,96.88-25.32,5.05-51.28.13-76.19-10.18-34-14.05-66-38.12-91.73-60.52L215.16,225c6.1,56.18,54.58,91.06,113.68,91.06C392.08,316.05,446.18,318.72,443.51,212.89Z" transform="translate(-167.01 -82.39)"/><path class="cls-5" d="M329,98.39A112.6,112.6,0,0,1,415,138a137.53,137.53,0,0,0-242.54,43.57,403.07,403.07,0,0,0,41.19,42.07l1.54,1.37a112.2,112.2,0,0,1-.65-12.11A114.5,114.5,0,0,1,329,98.39Z" transform="translate(-167.01 -82.39)"/><path class="cls-6" d="M309.77,288.05c24.91,10.31,50.87,15.23,76.19,10.18,66.71-13.31,5.91-85-5.25-96.88-5.26,3.8-12.72,7-19.7,7a32.3,32.3,0,0,1-3.65-.21,72.31,72.31,0,0,0-25.7-44.54,32,32,0,1,1,53.24,34c8.37,7.4,39.41,36.24,49.89,66.11l0,.1A137.74,137.74,0,0,0,415,138a112.6,112.6,0,0,0-86-39.61,114.5,114.5,0,0,0-114.5,114.5,112.2,112.2,0,0,0,.65,12.11l2.88,2.53C243.79,249.94,275.8,274,309.77,288.05Z" transform="translate(-167.01 -82.39)"/><path class="cls-7" d="M357.36,208.17a72.39,72.39,0,0,0-143.85,11.54c0,1.32,0,2.62.11,3.92,1.45,1.29,2.91,2.59,4.42,3.9,25.75,22.41,57.76,46.47,91.73,60.52a72.39,72.39,0,0,0,47.59-79.88Z" transform="translate(-167.01 -82.39)"/></g></g></svg>